<svg width="48" height="48" viewBox="0 0 48 48" fill="none" xmlns="http://www.w3.org/2000/svg">
<circle cx="24" cy="24" r="23" stroke="#191919" strokeWidth="2"/>
<path d="M25.5118 32.8881C24.308 32.8881 23.2046 32.8881 22.051 32.8881C22.051 30.3037 22.051 27.7443 22.051 25.1348C21.098 25.1348 20.1701 25.1348 19.2422 25.1348C19.2422 24.0308 19.2422 22.9769 19.2422 21.898C20.1701 21.898 21.0729 21.898 22.051 21.898C22.051 21.6722 22.051 21.4715 22.051 21.2958C22.076 20.3674 22.0008 19.439 22.1262 18.5358C22.4271 16.4281 23.7563 15.2237 25.888 15.1233C26.7657 15.0731 27.6434 15.2237 28.4961 15.299C28.5964 15.299 28.7469 15.4746 28.7469 15.575C28.772 16.3779 28.7469 17.2059 28.7469 18.0841C28.2704 18.0841 27.819 18.0841 27.3676 18.0841C26.1137 18.0841 25.5118 18.6863 25.5118 19.966C25.5118 20.5933 25.5118 21.2205 25.5118 21.9231C26.5651 21.9231 27.5682 21.9231 28.5964 21.9231C28.4209 23.0271 28.2704 24.0559 28.0949 25.1599C27.2422 25.1599 26.3895 25.1599 25.5118 25.1599C25.5118 27.7192 25.5118 30.2786 25.5118 32.8881Z" fill="#191919"/>
</svg>
