<svg width="48" height="48" viewBox="0 0 48 48" fill="none" xmlns="http://www.w3.org/2000/svg">
<circle cx="24" cy="24" r="23" stroke="#191919" strokeWidth="2"/>
<path d="M32.1623 24.3511L32.1372 23.4729H24.2125V25.7563H29.5541C28.9272 28.5163 26.9711 30.2225 24.3629 30.2225C20.9272 30.2225 18.1435 27.4374 18.1435 23.9999C18.1435 20.5623 20.9272 17.7772 24.3629 17.7772C25.993 17.7772 27.4726 18.4045 28.6012 19.4332L30.3567 17.9277C28.8269 16.4222 26.6952 15.4688 24.3629 15.4688C19.6482 15.4688 15.8363 19.2827 15.8363 23.9999C15.8363 28.7171 19.6482 32.531 24.3629 32.531C28.9021 32.531 32.1623 29.0683 32.1623 24.3511Z" fill="#191919"/>
<path d="M24.3637 32.6569C19.5988 32.6569 15.7117 28.7677 15.7117 24.0003C15.7117 19.2329 19.5988 15.3438 24.3637 15.3438C26.6458 15.3438 28.8026 16.222 30.4327 17.8278L30.533 17.9282L28.602 19.6093L28.5267 19.534C27.3982 18.4802 25.9186 17.9031 24.3888 17.9031C21.0283 17.9031 18.2947 20.6381 18.2947 24.0003C18.2947 27.3626 21.0283 30.0975 24.3888 30.0975C26.8966 30.0975 28.7775 28.5168 29.4295 25.8822H24.1129V23.3479H32.2634L32.2885 24.3516C32.2885 29.1692 28.9531 32.6569 24.3637 32.6569ZM24.3637 15.5947C19.7242 15.5947 15.9625 19.3584 15.9625 24.0003C15.9625 28.6422 19.7242 32.406 24.3637 32.406C28.8026 32.406 32.0377 29.0186 32.0377 24.3767V23.6239H24.3637V25.6563H29.7305L29.7054 25.8069C29.0534 28.6673 27.0722 30.3735 24.3888 30.3735C20.9029 30.3735 18.044 27.5382 18.044 24.0254C18.044 20.5377 20.8778 17.6773 24.3888 17.6773C25.9436 17.6773 27.4484 18.2544 28.627 19.3082L30.1819 17.9533C28.602 16.4227 26.5455 15.5947 24.3637 15.5947Z" fill="#191919"/>
</svg>
