<svg width="48" height="48" viewBox="0 0 48 48" fill="none" xmlns="http://www.w3.org/2000/svg">
<circle cx="24" cy="24" r="23" stroke="#191919" strokeWidth="2"/>
<path d="M15.4355 29.3951C17.3164 29.5708 19.0218 29.094 20.5766 27.9398C19.7992 27.8896 19.1221 27.6638 18.5453 27.2122C17.9685 26.7605 17.5421 26.2085 17.3164 25.4809C17.8431 25.5561 18.3196 25.5561 18.8211 25.4307C18.0186 25.2299 17.3666 24.8034 16.865 24.1761C16.3634 23.5237 16.1127 22.7961 16.0876 21.943C16.5641 22.1688 17.0656 22.3444 17.6174 22.3695C16.0625 21.0648 15.7365 19.5091 16.5891 17.6523C18.5202 19.9105 20.9026 21.1651 23.8368 21.3658C23.8368 21.0146 23.7866 20.6633 23.8117 20.312C23.887 19.1578 24.4387 18.2294 25.4167 17.6021C26.8462 16.6988 28.5515 16.8745 29.7804 18.0538C29.8556 18.129 29.9308 18.1541 30.0312 18.129C30.7584 17.9534 31.4355 17.7025 32.1127 17.301C31.8368 18.129 31.3352 18.7312 30.6581 19.208C31.3101 19.1327 31.9371 18.9571 32.5641 18.7312C32.4387 18.9069 32.3133 19.0825 32.1879 19.2331C31.8368 19.6847 31.4105 20.0611 30.9591 20.4124C30.9089 20.4626 30.8587 20.5629 30.8587 20.6382C30.8838 23.6743 29.8054 26.2587 27.6236 28.3664C26.2694 29.6711 24.6142 30.4741 22.7584 30.8002C21.6299 31.001 20.5014 31.0261 19.3478 30.8755C17.9685 30.6748 16.6644 30.1981 15.4857 29.4453C15.4606 29.4453 15.4606 29.4453 15.4355 29.3951Z" fill="#191919"/>
</svg>
