<svg width="10" height="18" viewBox="0 0 10 18" fill="none" xmlns="http://www.w3.org/2000/svg">
<path d="M6.51178 17.8881C5.30802 17.8881 4.20457 17.8881 3.05096 17.8881C3.05096 15.3037 3.05096 12.7443 3.05096 10.1348C2.09799 10.1348 1.17009 10.1348 0.242188 10.1348C0.242188 9.03079 0.242188 7.97695 0.242188 6.89801C1.17009 6.89801 2.07291 6.89801 3.05096 6.89801C3.05096 6.67219 3.05096 6.47146 3.05096 6.29582C3.07604 5.36743 3.00081 4.43905 3.1262 3.53576C3.42714 1.42807 4.75629 0.22368 6.88796 0.123314C7.7657 0.0731312 8.64344 0.22368 9.49611 0.298955C9.59642 0.298955 9.74689 0.474595 9.74689 0.574961C9.77197 1.37789 9.74689 2.20591 9.74689 3.08411C9.2704 3.08411 8.81899 3.08411 8.36758 3.08411C7.11366 3.08411 6.51178 3.6863 6.51178 4.96597C6.51178 5.59326 6.51178 6.22054 6.51178 6.92311C7.56507 6.92311 8.56821 6.92311 9.59642 6.92311C9.42087 8.02713 9.2704 9.05588 9.09485 10.1599C8.24219 10.1599 7.38952 10.1599 6.51178 10.1599C6.51178 12.7192 6.51178 15.2786 6.51178 17.8881Z" fill="#191919"/>
</svg>
