<svg width="18" height="14" viewBox="0 0 18 14" fill="none" xmlns="http://www.w3.org/2000/svg">
<path d="M0.435791 12.3951C2.31667 12.5708 4.022 12.094 5.57686 10.9398C4.79943 10.8896 4.12231 10.6638 3.54551 10.2122C2.9687 9.76052 2.54237 9.20851 2.31667 8.48085C2.84331 8.55613 3.3198 8.55613 3.82137 8.43067C3.01886 8.22994 2.36682 7.80338 1.86525 7.1761C1.36369 6.52372 1.1129 5.79606 1.08782 4.94295C1.56431 5.16878 2.06588 5.34442 2.6176 5.36951C1.06275 4.06475 0.736725 2.50908 1.58939 0.652311C3.52042 2.91054 5.90288 4.16512 8.83704 4.36585C8.83704 4.01457 8.78689 3.66329 8.81196 3.31201C8.8872 2.1578 9.43892 1.22941 10.417 0.602127C11.8464 -0.301166 13.5518 -0.125525 14.7806 1.05377C14.8558 1.12905 14.9311 1.15414 15.0314 1.12905C15.7587 0.953409 16.4358 0.702494 17.1129 0.30103C16.837 1.12905 16.3355 1.73124 15.6584 2.20798C16.3104 2.13271 16.9374 1.95707 17.5643 1.73124C17.4389 1.90688 17.3135 2.08252 17.1881 2.23307C16.837 2.68472 16.4107 3.06109 15.9593 3.41237C15.9091 3.46256 15.859 3.56292 15.859 3.6382C15.8841 6.67427 14.8057 9.25869 12.6239 11.3664C11.2696 12.6711 9.61447 13.4741 7.75867 13.8002C6.63014 14.001 5.50162 14.0261 4.34801 13.8755C2.9687 13.6748 1.66463 13.1981 0.485943 12.4453C0.460865 12.4453 0.460869 12.4453 0.435791 12.3951Z" fill="#191919"/>
</svg>
