<svg width="18" height="18" viewBox="0 0 18 18" fill="none" xmlns="http://www.w3.org/2000/svg">
<path d="M17.1623 9.35113L17.1372 8.47293H9.21246V10.7563H14.5541C13.9272 13.5163 11.9711 15.2225 9.36292 15.2225C5.92718 15.2225 3.14349 12.4374 3.14349 8.99985C3.14349 5.56232 5.92718 2.77717 9.36292 2.77717C10.993 2.77717 12.4726 3.40445 13.6012 4.4332L15.3567 2.92772C13.8269 1.42223 11.6952 0.46875 9.36292 0.46875C4.64819 0.46875 0.836275 4.28265 0.836275 8.99985C0.836275 13.7171 4.64819 17.531 9.36292 17.531C13.9021 17.531 17.1623 14.0683 17.1623 9.35113Z" fill="#191919"/>
<path d="M9.36371 17.6569C4.59882 17.6569 0.71167 13.7677 0.71167 9.00031C0.71167 4.23293 4.59882 0.34375 9.36371 0.34375C11.6458 0.34375 13.8026 1.22195 15.4327 2.82781L15.533 2.92817L13.602 4.6093L13.5267 4.53403C12.3982 3.48019 10.9186 2.90308 9.38878 2.90308C6.02828 2.90308 3.29474 5.63805 3.29474 9.00031C3.29474 12.3626 6.02828 15.0975 9.38878 15.0975C11.8966 15.0975 13.7775 13.5168 14.4295 10.8822H9.11293V8.34793H17.2634L17.2885 9.35159C17.2885 14.1692 13.9531 17.6569 9.36371 17.6569ZM9.36371 0.594665C4.72421 0.594665 0.962454 4.35839 0.962454 9.00031C0.962454 13.6422 4.72421 17.406 9.36371 17.406C13.8026 17.406 17.0377 14.0186 17.0377 9.37668V8.62394H9.36371V10.6563H14.7305L14.7054 10.8069C14.0534 13.6673 12.0722 15.3735 9.38878 15.3735C5.90289 15.3735 3.04396 12.5382 3.04396 9.0254C3.04396 5.53769 5.87781 2.67726 9.38878 2.67726C10.9436 2.67726 12.4484 3.25436 13.627 4.3082L15.1819 2.95326C13.602 1.42268 11.5455 0.594665 9.36371 0.594665Z" fill="#191919"/>
</svg>
