<svg width="161" height="56" viewBox="0 0 161 56" fill="none" xmlns="http://www.w3.org/2000/svg">
<path d="M25.2102 1.37063L46.3106 21.9301L47.7139 23.3007L46.3106 24.6713L25.2102 45.2797L23.8069 46.6503L22.4536 45.2797L1.35323 24.6713L0 23.3007L1.35323 21.9301L22.5037 1.37063L23.857 0L25.2102 1.37063Z" fill="#FEF35B"/>
<path d="M46.3106 21.9301L25.2102 1.37063L23.857 0L22.5037 1.37063L1.35323 21.9301L0 23.3007L1.35323 24.6713L22.4536 45.2797L23.8069 46.6503L25.2102 45.2797L46.3106 24.6713L47.7139 23.3007L46.3106 21.9301ZM23.857 41.1678L5.51317 23.3007L23.857 5.38461L42.1507 23.3007L23.857 41.1678Z" fill="#1A1A1A"/>
<path d="M26.0122 18.9434H21.5015V32.8455H26.0122V18.9434Z" fill="#1A1A1A"/>
<path d="M21.4517 15.6152C21.4517 16.2515 21.7023 16.741 22.1533 17.2305C22.6044 17.6711 23.1557 17.9159 23.8073 17.9159C24.4588 17.9159 25.0102 17.6711 25.4612 17.2305C25.9123 16.79 26.1629 16.2515 26.1629 15.6152C26.1629 14.9788 25.9123 14.4403 25.4612 13.9998C25.0102 13.5592 24.4588 13.3145 23.8073 13.3145C23.1557 13.3145 22.5543 13.5592 22.1032 13.9998C21.7023 14.4403 21.4517 14.9788 21.4517 15.6152Z" fill="#1A1A1A"/>
<path d="M43.6039 38.8184H40.1958V55.8533H43.6039V38.8184Z" fill="#1A1A1A"/>
<path d="M57.5882 49.2449L50.6717 38.8184H47.6646V55.8533H51.0727V45.4268L57.9391 55.8533H60.9964V38.8184H57.5882V49.2449Z" fill="#1A1A1A"/>
<path d="M65.0552 55.8533H68.4633V48.9512H75.3297V45.9652H68.4633V41.8044H76.5326V38.8184H65.0552V55.8533Z" fill="#1A1A1A"/>
<path d="M84.8525 38.6719C82.8477 38.6719 81.3441 39.3572 80.1412 40.532C78.387 42.2453 78.4372 44.3991 78.4372 47.3362C78.4372 50.2733 78.387 52.4271 80.1412 54.1404C81.3441 55.3152 82.8978 56.0005 84.8525 56.0005C86.8573 56.0005 88.3107 55.3152 89.5637 54.1404C91.3179 52.4271 91.3179 50.2733 91.3179 47.3362C91.3179 44.3991 91.3179 42.2453 89.5637 40.532C88.3609 39.3572 86.8573 38.6719 84.8525 38.6719ZM87.0577 52.1334C86.5565 52.6719 85.8047 53.0635 84.9026 53.0635C83.9503 53.0635 83.1985 52.7208 82.6973 52.1334C82.0458 51.3991 81.8453 50.6159 81.8453 47.3362C81.8453 44.0565 81.9957 43.2733 82.6973 42.539C83.1985 42.0005 83.9503 41.6089 84.9026 41.6089C85.8549 41.6089 86.6067 41.9516 87.0577 42.539C87.7093 43.2733 87.9098 44.0565 87.9098 47.3362C87.9098 50.6159 87.7093 51.3991 87.0577 52.1334Z" fill="#1A1A1A"/>
<path d="M110.865 41.4617V38.8184H99.7387V41.8044H106.856L99.438 53.161V55.8533H110.865V52.9163H103.397L110.865 41.4617Z" fill="#1A1A1A"/>
<path d="M119.735 38.6719C117.73 38.6719 116.226 39.3572 115.024 40.532C113.269 42.2453 113.319 44.3991 113.319 47.3362C113.319 50.2733 113.269 52.4271 115.024 54.1404C116.226 55.3152 117.78 56.0005 119.735 56.0005C121.74 56.0005 123.193 55.3152 124.446 54.1404C126.2 52.4271 126.2 50.2733 126.2 47.3362C126.2 44.3991 126.2 42.2453 124.446 40.532C123.193 39.3572 121.74 38.6719 119.735 38.6719ZM121.94 52.1334C121.439 52.6719 120.687 53.0635 119.785 53.0635C118.833 53.0635 118.081 52.7208 117.58 52.1334C116.928 51.3991 116.728 50.6159 116.728 47.3362C116.728 44.0565 116.878 43.2733 117.58 42.539C118.081 42.0005 118.833 41.6089 119.785 41.6089C120.737 41.6089 121.489 41.9516 121.99 42.539C122.642 43.2733 122.842 44.0565 122.842 47.3362C122.792 50.6159 122.592 51.3991 121.94 52.1334Z" fill="#1A1A1A"/>
<path d="M139.584 38.8184V49.2449L132.667 38.8184H129.66V55.8533H133.068V45.4268L139.985 55.8533H142.992V38.8184H139.584Z" fill="#1A1A1A"/>
<path d="M154.168 38.8184H151.511L145.146 55.8533H148.704L149.757 52.8184H155.972L157.024 55.8533H160.583L154.168 38.8184ZM150.709 50.0281L152.915 43.8114L155.07 50.0281H150.709Z" fill="#1A1A1A"/>
</svg>
