<svg width="36" height="35" viewBox="0 0 36 35" fill="none" xmlns="http://www.w3.org/2000/svg">
<path d="M18.5402 1.00799L34.0579 16.1279L35.09 17.1359L34.0579 18.1439L18.5402 33.2998L17.5081 34.3078L16.5129 33.2998L0.9952 18.1439L0 17.1359L0.9952 16.1279L16.5498 1.00799L17.545 0L18.5402 1.00799Z" fill="#FEF35B"/>
<path d="M34.0579 16.1279L18.5402 1.00799L17.545 0L16.5498 1.00799L0.9952 16.1279L0 17.1359L0.9952 18.1439L16.5129 33.2998L17.5081 34.3078L18.5402 33.2998L34.0579 18.1439L35.09 17.1359L34.0579 16.1279ZM17.545 30.2758L4.05452 17.1359L17.545 3.95998L30.9986 17.1359L17.545 30.2758Z" fill="#1A1A1A"/>
<path d="M19.1298 13.9316H15.8125V24.1556H19.1298V13.9316Z" fill="#1A1A1A"/>
<path d="M15.7761 11.485C15.7761 11.953 15.9604 12.313 16.2922 12.673C16.6239 12.997 17.0293 13.1769 17.5085 13.1769C17.9877 13.1769 18.3931 12.997 18.7249 12.673C19.0566 12.349 19.2409 11.953 19.2409 11.485C19.2409 11.017 19.0566 10.621 18.7249 10.297C18.3931 9.97297 17.9877 9.79297 17.5085 9.79297C17.0293 9.79297 16.587 9.97297 16.2553 10.297C15.9604 10.621 15.7761 11.017 15.7761 11.485Z" fill="#1A1A1A"/>
</svg>
